<?xml version="1.0" encoding="UTF-8"?>
<!-- Generator: Adobe Illustrator 23.0.3, SVG Export Plug-In . SVG Version: 6.00 Build 0) -->
<svg
    xmlns="http://www.w3.org/2000/svg"
    xmlns:xlink="http://www.w3.org/1999/xlink"
    version="1.1"
    id="Layer_1"
    x="0px"
    y="0px"
    width="110px"
    height="110px"
>   
    <style type="text/css">
        .st0 {
            fill: #fff;
        }
        .st1 {
            fill: #fff;
        }
    </style>
<g xmlns="http://www.w3.org/2000/svg" style="position:relative;left:-10px;">
            <rect x="36.2" y="45.5" transform="matrix(0.2236 -0.9747 0.9747 0.2236 -18.1749 73.0392)" class="st1" width="1.1" height="4.8"/>
            <path class="st1" d="M36.3,41.5l4.5,1.7l-0.2,0.5c0,0.1-0.1,0.1-0.1,0.2c0,0-0.1,0.1-0.2,0.1l-3.5,1.1c0.1,0,0.2,0,0.2,0.1 c0.1,0,0.2,0,0.2,0.1l2.4,0.9l-0.3,0.9l-4.5-1.7l0.2-0.6l0-0.1l0.1-0.1l0.1-0.1l0.1,0l3.5-1.1c-0.1,0-0.2,0-0.3-0.1 c-0.1,0-0.2-0.1-0.2-0.1L36,42.4L36.3,41.5z"/>
            <path class="st1" d="M39.2,38.3l0.1,0.2l0,0.1c0,0-0.1,0.1-0.1,0.1c-0.1,0-0.1,0.1-0.2,0.1c-0.1,0-0.1,0.1-0.2,0.2 c-0.1,0.1-0.1,0.2-0.2,0.3c-0.1,0.2-0.1,0.3-0.1,0.5c0,0.1,0.1,0.2,0.2,0.3c0.1,0,0.2,0.1,0.3,0c0.1,0,0.2-0.1,0.3-0.1 c0.1-0.1,0.2-0.1,0.3-0.2c0.1-0.1,0.2-0.2,0.3-0.3c0.1-0.1,0.2-0.2,0.3-0.3c0.1-0.1,0.2-0.1,0.4-0.2c0.1,0,0.3-0.1,0.4,0 c0.2,0,0.3,0.1,0.5,0.2c0.2,0.1,0.4,0.2,0.5,0.4c0.1,0.2,0.2,0.3,0.3,0.5c0.1,0.2,0.1,0.4,0,0.6c0,0.2-0.1,0.5-0.3,0.7 c-0.1,0.1-0.2,0.3-0.3,0.4c-0.1,0.1-0.2,0.2-0.3,0.3c-0.1,0.1-0.2,0.2-0.4,0.3c-0.1,0.1-0.3,0.1-0.4,0.2L40.2,42l0-0.1l0-0.1 c0-0.1,0.1-0.1,0.2-0.1c0.1,0,0.1-0.1,0.2-0.1c0.1,0,0.2-0.1,0.3-0.2c0.1-0.1,0.2-0.2,0.2-0.3c0.1-0.2,0.1-0.3,0.1-0.5 c0-0.1-0.1-0.3-0.3-0.4c-0.1-0.1-0.2-0.1-0.3-0.1c-0.1,0-0.2,0.1-0.3,0.1c-0.1,0.1-0.2,0.1-0.3,0.2c-0.1,0.1-0.2,0.2-0.3,0.3 c-0.1,0.1-0.2,0.2-0.3,0.3c-0.1,0.1-0.2,0.1-0.4,0.2c-0.1,0-0.3,0-0.5,0c-0.2,0-0.3-0.1-0.5-0.2c-0.2-0.1-0.3-0.2-0.4-0.4 c-0.1-0.1-0.2-0.3-0.2-0.5c0-0.2-0.1-0.4,0-0.6c0-0.2,0.1-0.4,0.2-0.7c0.1-0.1,0.2-0.2,0.2-0.4c0.1-0.1,0.2-0.2,0.3-0.3 c0.1-0.1,0.2-0.2,0.3-0.2c0.1-0.1,0.2-0.1,0.3-0.1L39.2,38.3z"/>
            <polygon class="st1" points="42,34.3 41.1,35.4 44.3,37.8 43.6,38.7 40.4,36.3 39.6,37.4 38.9,36.8 41.2,33.8 "/>
            <rect x="43.5" y="31.9" transform="matrix(0.6888 -0.7249 0.7249 0.6888 -11.1679 42.6271)" class="st1" width="1.1" height="4.8"/>
            <polygon class="st1" points="46.9,29.7 45.8,30.6 48.4,33.6 47.5,34.3 45,31.3 43.9,32.2 43.4,31.5 46.3,29 "/>
            <path class="st1" d="M51,30.7c0.1-0.1,0.2-0.2,0.3-0.3c0.1-0.1,0.1-0.2,0.1-0.3c0-0.1,0-0.3,0-0.4c0-0.1-0.1-0.3-0.2-0.4l-1.5-2.5 l1-0.6l1.5,2.5c0.2,0.3,0.3,0.5,0.3,0.8c0,0.3,0,0.5,0,0.8c-0.1,0.2-0.2,0.5-0.3,0.7c-0.2,0.2-0.4,0.4-0.7,0.6 c-0.3,0.2-0.6,0.3-0.8,0.3c-0.3,0-0.5,0-0.8,0c-0.2-0.1-0.5-0.2-0.7-0.3c-0.2-0.2-0.4-0.4-0.5-0.6l-1.5-2.5l1-0.6l1.5,2.5 c0.1,0.1,0.2,0.3,0.3,0.4c0.1,0.1,0.2,0.2,0.3,0.2c0.1,0,0.2,0,0.4,0C50.8,30.8,50.9,30.8,51,30.7"/>
            <polygon class="st1" points="55.7,25.1 54.4,25.7 55.9,29.3 54.8,29.7 53.3,26.1 52.1,26.6 51.8,25.8 55.3,24.3 "/>
            <rect x="56.9" y="23.8" transform="matrix(0.9633 -0.2685 0.2685 0.9633 -4.941 16.3921)" class="st1" width="1.1" height="4.8"/>
            <polygon class="st1" points="64.7,22.7 65.1,27.5 63.9,27.6 63.8,25.6 61.8,25.8 62,27.8 60.9,27.9 60.4,23.1 61.6,23 61.7,25 63.7,24.8 63.5,22.8 "/>
            <path class="st1" d="M70.1,27.9l-0.9-0.1c-0.1,0-0.2,0-0.2-0.1c-0.1-0.1-0.1-0.1-0.1-0.2l-0.2-0.9l-1.8-0.2l-0.4,0.8 c0,0.1-0.1,0.1-0.1,0.2c-0.1,0-0.1,0.1-0.2,0.1l-0.9-0.1l2.3-4.7l1.1,0.1L70.1,27.9z M68.5,25.9l-0.3-1.4c0-0.1-0.1-0.2-0.1-0.3 c0-0.1-0.1-0.2-0.1-0.4c0,0.1-0.1,0.3-0.1,0.4c0,0.1-0.1,0.2-0.1,0.3l-0.6,1.3L68.5,25.9z"/>
            <path class="st1" d="M74.2,29l-1-0.3c-0.2,0-0.3-0.1-0.3-0.3l-0.4-1.6c0-0.1-0.1-0.1-0.1-0.2c0,0-0.1-0.1-0.2-0.1l-0.3-0.1 l-0.4,1.7L70.3,28l1.2-4.7l1.5,0.4c0.3,0.1,0.6,0.2,0.8,0.3c0.2,0.1,0.4,0.3,0.5,0.4c0.1,0.2,0.2,0.3,0.2,0.5c0,0.2,0,0.4,0,0.6 c0,0.2-0.1,0.3-0.2,0.4c-0.1,0.1-0.2,0.2-0.3,0.3c-0.1,0.1-0.2,0.2-0.4,0.2c-0.1,0.1-0.3,0.1-0.5,0.1c0.1,0.1,0.1,0.1,0.2,0.2 c0,0.1,0.1,0.1,0.1,0.2L74.2,29z M72.5,25.9c0.1,0,0.3,0.1,0.4,0c0.1,0,0.2,0,0.3-0.1c0.1-0.1,0.2-0.1,0.2-0.2 c0.1-0.1,0.1-0.2,0.1-0.3c0.1-0.2,0-0.4-0.1-0.5c-0.1-0.2-0.3-0.3-0.6-0.3l-0.4-0.1l-0.4,1.4L72.5,25.9z"/>
            <path class="st1" d="M78,30.7l-0.9-0.4c-0.2-0.1-0.3-0.2-0.3-0.4l-0.2-1.6c0-0.1,0-0.1-0.1-0.2c0,0-0.1-0.1-0.2-0.1l-0.3-0.1 l-0.7,1.6l-1-0.4l1.9-4.4l1.4,0.6c0.3,0.1,0.6,0.3,0.8,0.5c0.2,0.2,0.3,0.3,0.4,0.5c0.1,0.2,0.1,0.4,0.1,0.6c0,0.2,0,0.4-0.1,0.6 c-0.1,0.1-0.1,0.3-0.2,0.4c-0.1,0.1-0.2,0.2-0.3,0.3c-0.1,0.1-0.3,0.1-0.4,0.2c-0.1,0-0.3,0.1-0.5,0c0.1,0.1,0.1,0.1,0.1,0.2 c0,0.1,0.1,0.2,0.1,0.3L78,30.7z M76.8,27.4c0.1,0.1,0.3,0.1,0.4,0.1c0.1,0,0.2,0,0.3,0c0.1,0,0.2-0.1,0.2-0.2 c0.1-0.1,0.1-0.2,0.2-0.3c0.1-0.2,0.1-0.4,0-0.5c-0.1-0.2-0.3-0.3-0.5-0.4L77,25.9l-0.6,1.3L76.8,27.4z"/>
            <path class="st1" d="M80.9,30.4l-1,1.6l-1-0.6l1-1.6l0.1-3.5l0.8,0.5c0.1,0.1,0.1,0.1,0.2,0.2c0,0.1,0,0.1,0,0.2l-0.2,1.6 c0,0.1,0,0.2,0,0.3c0,0.1,0,0.2,0,0.3c0.1-0.1,0.2-0.1,0.2-0.2c0.1-0.1,0.2-0.1,0.3-0.2l1.3-0.8l0.1,0l0.1,0l0.1,0l0.1,0l0.8,0.5 L80.9,30.4z"/>
            <polygon class="st1" points="86.1,31.6 85.2,32.5 86.4,33.6 85.9,34.3 84.6,33.2 83.4,34.5 82.5,33.8 85.8,30.2 88.1,32.3 87.5,33 "/>
            <path class="st1" d="M87.1,37.3c0.1,0.1,0.2,0.2,0.3,0.3c0.1,0.1,0.2,0.1,0.4,0.1c0.1,0,0.3,0,0.4-0.1c0.1,0,0.3-0.1,0.4-0.2 l2.2-1.8l0.7,0.9l-2.2,1.8c-0.2,0.2-0.5,0.3-0.7,0.4c-0.3,0.1-0.5,0.1-0.8,0.1c-0.3,0-0.5-0.1-0.7-0.3c-0.2-0.1-0.5-0.3-0.7-0.6 c-0.2-0.3-0.3-0.5-0.4-0.8c-0.1-0.3-0.1-0.5-0.1-0.8c0-0.3,0.1-0.5,0.2-0.7c0.1-0.2,0.3-0.4,0.6-0.6l2.2-1.8l0.7,0.9l-2.2,1.8 c-0.1,0.1-0.2,0.2-0.3,0.3c-0.1,0.1-0.1,0.2-0.2,0.4c0,0.1,0,0.2,0,0.4C87,37,87,37.1,87.1,37.3"/>
            <polygon class="st1" points="90.3,42.1 89.5,42.6 88.1,40.1 92.3,37.7 92.8,38.6 89.4,40.6 "/>
            <polygon class="st1" points="94.4,44.1 93.9,42.9 90.3,44.4 89.8,43.4 93.5,41.8 92.9,40.6 93.8,40.2 95.3,43.8 "/>
            <path class="st1" d="M96.1,48.2c-0.1,0-0.1,0-0.2,0c-0.1,0-0.1,0-0.2,0L92,46.9l0.6,2.2l-0.8,0.2l-1-3.6l0.4-0.1l0.2,0l0.2,0 l3.7,1.4l-0.6-2.1l0.8-0.2l0.9,3.5L96.1,48.2z"/>
            <path class="st1" d="M99,54.5c0,18.6-15.1,33.6-33.6,33.6c-18.6,0-33.6-15.1-33.6-33.6c0-18.6,15.1-33.6,33.6-33.6 C83.9,20.9,99,35.9,99,54.5 M78.1,84.7c3.9-1.7,7.4-4,10.4-7c3-3,5.4-6.5,7-10.4c1.7-4,2.6-8.3,2.6-12.8c0-4.4-0.9-8.7-2.6-12.8 c-1.7-3.9-4-7.4-7-10.4c-3-3-6.5-5.4-10.4-7c-4-1.7-8.3-2.6-12.8-2.6c-4.4,0-8.7,0.9-12.8,2.6c-3.9,1.7-7.4,4-10.4,7 c-3,3-5.4,6.5-7,10.4c-1.7,4-2.6,8.3-2.6,12.8c0,4.4,0.9,8.7,2.6,12.8c1.7,3.9,4,7.4,7,10.4c3,3,6.5,5.4,10.4,7 c4,1.7,8.3,2.6,12.8,2.6C69.8,87.3,74.1,86.4,78.1,84.7"/>
            <polygon class="st1" points="40.5,65.5 35.9,67.1 35.5,66.1 37.5,65.4 36.8,63.5 34.9,64.2 34.5,63.2 39.1,61.6 39.4,62.6 37.5,63.3 38.2,65.1 40.1,64.5 "/>
            <path class="st1" d="M38.7,72.2l-0.4-0.8c0-0.1-0.1-0.2-0.1-0.2c0-0.1,0-0.1,0.1-0.2l0.6-0.7L38,68.8l-0.9,0.2c-0.1,0-0.1,0-0.2,0 c-0.1,0-0.1-0.1-0.2-0.2L36.3,68l5.1-0.7l0.6,1L38.7,72.2z M39.4,69.8l0.9-1c0.1-0.1,0.1-0.2,0.2-0.2c0.1-0.1,0.2-0.2,0.3-0.3 c-0.1,0-0.3,0.1-0.4,0.1c-0.1,0-0.2,0-0.3,0.1l-1.4,0.3L39.4,69.8z"/>
            <path class="st1" d="M41.6,76L41,75.2c-0.1-0.1-0.1-0.3-0.1-0.5l0.6-1.5c0-0.1,0-0.1,0-0.2c0-0.1,0-0.1-0.1-0.2l-0.2-0.2l-1.4,1.1 l-0.7-0.9l3.8-3l1,1.2c0.2,0.3,0.4,0.5,0.5,0.8c0.1,0.2,0.1,0.5,0.1,0.7c0,0.2-0.1,0.4-0.1,0.5c-0.1,0.2-0.2,0.3-0.4,0.4 c-0.1,0.1-0.3,0.2-0.4,0.2c-0.1,0.1-0.3,0.1-0.4,0.1c-0.1,0-0.3,0-0.4,0c-0.1,0-0.3-0.1-0.4-0.2c0,0.1,0,0.2,0,0.2 c0,0.1,0,0.2-0.1,0.3L41.6,76z M42.2,72.6c0.1,0.1,0.2,0.2,0.3,0.3c0.1,0.1,0.2,0.1,0.3,0.1c0.1,0,0.2,0,0.3,0 c0.1,0,0.2-0.1,0.3-0.1c0.2-0.1,0.3-0.3,0.3-0.5c0-0.2-0.1-0.4-0.3-0.6L43,71.3l-1.1,0.9L42.2,72.6z"/>
            <path class="st1" d="M45.1,79.3l-0.7-0.7c-0.1-0.1-0.2-0.3-0.1-0.4l0.4-1.6c0-0.1,0-0.1,0-0.2c0-0.1-0.1-0.1-0.1-0.2l-0.2-0.2 L43,77.4l-0.8-0.8l3.3-3.5l1.1,1.1c0.3,0.2,0.4,0.5,0.6,0.7c0.1,0.2,0.2,0.4,0.2,0.6c0,0.2,0,0.4-0.1,0.6 c-0.1,0.2-0.2,0.3-0.3,0.5c-0.1,0.1-0.2,0.2-0.4,0.3c-0.1,0.1-0.3,0.1-0.4,0.2c-0.1,0-0.3,0-0.4,0c-0.2,0-0.3-0.1-0.5-0.1 c0,0.1,0,0.2,0.1,0.2c0,0.1,0,0.2,0,0.3L45.1,79.3z M45.1,75.8c0.1,0.1,0.2,0.2,0.3,0.2c0.1,0,0.2,0.1,0.3,0.1 c0.1,0,0.2,0,0.3-0.1c0.1,0,0.2-0.1,0.2-0.2c0.1-0.2,0.2-0.3,0.2-0.5c0-0.2-0.1-0.4-0.3-0.6l-0.3-0.3l-1,1L45.1,75.8z"/>
            <path class="st1" d="M48.5,79.5L47.5,81l-0.9-0.6l1.1-1.5l0.3-3.5l0.8,0.6c0.1,0.1,0.1,0.1,0.1,0.2c0,0.1,0,0.1,0,0.2l-0.2,1.5 c0,0.1,0,0.2-0.1,0.3c0,0.1,0,0.2-0.1,0.3c0.1-0.1,0.2-0.1,0.3-0.2c0.1-0.1,0.2-0.1,0.3-0.2l1.4-0.8l0.1,0l0.1,0l0.1,0l0.1,0.1 l0.8,0.6L48.5,79.5z"/>
            <polygon class="st1" points="53.5,79.8 53,81 54.5,81.6 54.1,82.4 52.6,81.7 51.9,83.5 50.8,83 52.8,78.6 55.7,79.9 55.3,80.7 "/>
            <path class="st1" d="M56.9,84.4c0.1,0,0.3,0.1,0.4,0c0.1,0,0.2-0.1,0.3-0.1c0.1-0.1,0.2-0.2,0.3-0.3c0.1-0.1,0.1-0.3,0.2-0.4 l0.8-2.8l1.1,0.3l-0.8,2.8c-0.1,0.3-0.2,0.5-0.4,0.7c-0.2,0.2-0.3,0.4-0.6,0.5c-0.2,0.1-0.5,0.2-0.7,0.2c-0.3,0-0.6,0-0.9-0.1 c-0.3-0.1-0.6-0.2-0.8-0.4c-0.2-0.2-0.4-0.4-0.5-0.6c-0.1-0.2-0.2-0.5-0.2-0.7c0-0.3,0-0.5,0.1-0.8l0.8-2.8l1.1,0.3l-0.8,2.8 c0,0.2-0.1,0.3-0.1,0.5c0,0.1,0,0.3,0.1,0.4c0.1,0.1,0.1,0.2,0.2,0.3C56.6,84.3,56.7,84.3,56.9,84.4"/>
            <polygon class="st1" points="62.9,85.5 62.8,86.4 59.9,86 60.5,81.2 61.7,81.3 61.1,85.3 "/>
            <polygon class="st1" points="66.7,82.5 65.3,82.5 65.3,86.4 64.1,86.4 64.2,82.5 62.8,82.4 62.9,81.6 66.7,81.6 "/>
            <path class="st1" d="M70.5,81.6c0,0.1,0,0.1,0,0.2c0,0.1,0,0.1-0.1,0.2l-1.9,3.5l2.3-0.3l0.1,0.9l-3.7,0.4L67.1,86l0-0.2l0.1-0.1 l1.9-3.5l-2.2,0.3l-0.1-0.9l3.6-0.4L70.5,81.6z"/>
            <rect x="72.8" y="80.5" transform="matrix(0.9623 -0.2721 0.2721 0.9623 -19.7867 23.1019)" class="st1" width="1.1" height="4.8"/>
            <path class="st1" d="M77.9,78.6l1.9,4.5l-0.5,0.2c-0.1,0-0.2,0.1-0.2,0c-0.1,0-0.1,0-0.2-0.1l-3.2-1.8c0,0.1,0.1,0.2,0.1,0.2 c0,0.1,0.1,0.1,0.1,0.2l1,2.4l-0.9,0.4L74,80.3l0.5-0.2l0.1,0l0.1,0l0.1,0l0.1,0.1l3.3,1.8c0-0.1-0.1-0.2-0.1-0.2 c0-0.1-0.1-0.2-0.1-0.2L77,79L77.9,78.6z"/>
            <path class="st1" d="M81.2,77.7c0,0.1,0,0.1,0,0.2L81.1,78c0,0-0.1,0-0.2,0c-0.1,0-0.1,0-0.2,0c-0.1,0-0.2,0-0.3,0 c-0.1,0-0.2,0.1-0.3,0.1c-0.2,0.1-0.3,0.2-0.3,0.4c0,0.1,0,0.3,0.1,0.4c0.1,0.1,0.1,0.1,0.2,0.2c0.1,0,0.2,0,0.3,0 c0.1,0,0.2,0,0.4-0.1c0.1,0,0.3-0.1,0.4-0.1c0.1,0,0.3-0.1,0.4-0.1c0.1,0,0.3,0,0.4,0c0.1,0,0.3,0.1,0.4,0.2 c0.1,0.1,0.2,0.2,0.4,0.4c0.1,0.2,0.2,0.4,0.2,0.6c0,0.2,0,0.4,0,0.6c0,0.2-0.1,0.4-0.3,0.6c-0.1,0.2-0.3,0.4-0.6,0.5 c-0.1,0.1-0.3,0.1-0.4,0.2c-0.1,0.1-0.3,0.1-0.5,0.1c-0.2,0-0.3,0-0.5,0c-0.1,0-0.3,0-0.4,0l0-0.6l0-0.1l0.1-0.1 c0.1,0,0.1-0.1,0.2-0.1c0.1,0,0.2,0,0.3,0c0.1,0,0.2,0,0.3,0c0.1,0,0.2-0.1,0.4-0.2c0.2-0.1,0.3-0.2,0.3-0.4c0-0.1,0-0.3-0.1-0.5 c-0.1-0.1-0.1-0.2-0.2-0.2c-0.1,0-0.2,0-0.3,0c-0.1,0-0.2,0-0.4,0.1c-0.1,0-0.3,0.1-0.4,0.1c-0.1,0-0.3,0.1-0.4,0.1 c-0.1,0-0.3,0-0.4,0c-0.1,0-0.3-0.1-0.4-0.2c-0.1-0.1-0.3-0.2-0.4-0.4c-0.1-0.2-0.2-0.3-0.2-0.5c0-0.2,0-0.4,0-0.6 c0-0.2,0.1-0.4,0.3-0.6c0.1-0.2,0.3-0.3,0.5-0.5c0.1-0.1,0.3-0.1,0.4-0.2c0.1-0.1,0.3-0.1,0.4-0.1c0.1,0,0.3,0,0.4,0 c0.1,0,0.2,0,0.4,0L81.2,77.7z"/>
            <polygon class="st1" points="84.6,74.9 83.5,75.8 86,78.8 85.1,79.6 82.6,76.5 81.6,77.4 81,76.7 84,74.2 "/>
            <rect x="85.8" y="72.8" transform="matrix(0.7031 -0.7111 0.7111 0.7031 -27.8724 83.7324)" class="st1" width="1.1" height="4.8"/>
            <polygon class="st1" points="88.4,70.5 87.6,71.5 90.6,74 89.9,74.9 86.9,72.4 86,73.5 85.3,72.9 87.7,69.9 "/>
            <path class="st1" d="M92.3,69.9c0.1-0.1,0.1-0.3,0.1-0.4c0-0.1,0-0.2,0-0.4c0-0.1-0.1-0.2-0.2-0.3c-0.1-0.1-0.2-0.2-0.4-0.3 l-2.5-1.4l0.6-1l2.5,1.4c0.3,0.1,0.5,0.3,0.6,0.5c0.2,0.2,0.3,0.4,0.3,0.7c0.1,0.2,0.1,0.5,0,0.8c0,0.3-0.1,0.5-0.3,0.8 c-0.2,0.3-0.3,0.5-0.6,0.7c-0.2,0.2-0.4,0.3-0.7,0.4c-0.2,0.1-0.5,0.1-0.8,0c-0.3,0-0.5-0.1-0.8-0.3l-2.5-1.4l0.6-1l2.5,1.4 c0.1,0.1,0.3,0.1,0.4,0.2c0.1,0,0.3,0,0.4,0c0.1,0,0.2-0.1,0.3-0.2C92.1,70.1,92.2,70,92.3,69.9"/>
            <polygon class="st1" points="92.2,62.7 91.7,63.9 95.4,65.3 95,66.4 91.3,65 90.8,66.3 90,65.9 91.4,62.3 "/>
            <polygon class="st1" points="92.5,61.1 93.6,61.4 94,59.9 94.8,60.1 94.4,61.6 95.5,61.8 96,59.9 96.8,60.1 96.1,63.1 91.4,62 92.1,59 93,59.2 "/>
            <path class="st1" d="M115.8,54.5l-16.9-3c-0.7-7.7-3.9-14.6-8.9-19.9l2.5-4.2l-0.3,0.1l-4,2.4c-5.3-5-12.3-8.2-19.9-8.9l-3-16.9 l-3,16.9c-7.6,0.7-14.5,3.9-19.9,8.8l-4.2-2.5l2.5,4.2c-5,5.3-8.3,12.3-9,20l-16.9,3l16.9,3c0.7,7.7,3.9,14.6,8.9,19.9l-2.5,4.2 l4.2-2.5c5.3,5,12.3,8.2,19.9,8.9l3,16.9l3-16.9c7.7-0.7,14.7-4,20-8.9l4.2,2.5l-0.1-0.2l-2.4-4c4.9-5.3,8.2-12.2,8.8-19.9 L115.8,54.5z M109.4,54.5H99c0-0.6,0-1.2-0.1-1.8L109.4,54.5z M21.3,54.5h10.4c0,0.6,0,1.2,0,1.9L21.3,54.5z M91.3,28.6l-1.6,2.7 c-0.4-0.4-0.7-0.7-1.1-1.1L91.3,28.6z M65.3,10.4v10.4c-0.6,0-1.2,0-1.8,0L65.3,10.4z M39.5,28.5l2.7,1.6 c-0.4,0.4-0.7,0.7-1.1,1.1L39.5,28.5z M39.4,80.4l1.6-2.7c0.4,0.4,0.7,0.7,1.1,1.1L39.4,80.4z M65.3,98.6V88.1c0.6,0,1.2,0,1.8,0 L65.3,98.6z M91.3,80.4l-2.7-1.6c0.4-0.4,0.7-0.7,1.1-1.1L91.3,80.4z M98.1,56.5c0,0.3,0,0.6-0.1,0.8c0,0.1,0,0.2,0,0.3 c-0.3,3.3-1.1,6.5-2.4,9.6c-1.5,3.5-3.5,6.6-6,9.4c-0.1,0.1-0.1,0.1-0.2,0.2c-0.3,0.3-0.5,0.6-0.8,0.8c-0.2,0.2-0.5,0.5-0.7,0.7 c-0.1,0.1-0.1,0.1-0.2,0.2c-2.8,2.6-6,4.7-9.5,6.2c-3.1,1.3-6.3,2.1-9.6,2.4c-0.4,0-0.8,0.1-1.1,0.1c-0.7,0-1.3,0.1-2,0.1 c-0.7,0-1.3,0-2-0.1c-0.2,0-0.4,0-0.6,0c-0.2,0-0.3,0-0.5,0c-3.3-0.3-6.5-1.1-9.6-2.4c-3.5-1.5-6.7-3.5-9.5-6.1 c-0.1-0.1-0.1-0.1-0.2-0.2c-0.3-0.2-0.5-0.5-0.8-0.7c-0.2-0.2-0.5-0.5-0.7-0.7c-0.1-0.1-0.1-0.1-0.2-0.2c-2.6-2.8-4.6-6-6.1-9.5 c-1.3-3.1-2.1-6.3-2.4-9.6c0-0.4-0.1-0.8-0.1-1.1c0-0.7-0.1-1.3-0.1-2c0-0.7,0-1.3,0.1-2c0-0.2,0-0.4,0-0.7c0-0.2,0-0.3,0-0.5 c0.3-3.3,1.1-6.5,2.4-9.6c1.5-3.5,3.6-6.7,6.2-9.5c0.1-0.1,0.1-0.1,0.2-0.2c0.2-0.2,0.4-0.5,0.7-0.7c0.3-0.3,0.6-0.5,0.8-0.8 c0.1-0.1,0.1-0.1,0.2-0.2c2.8-2.5,5.9-4.6,9.4-6c3.1-1.3,6.3-2.1,9.6-2.4c0.4,0,0.8-0.1,1.1-0.1c0.7,0,1.3-0.1,2-0.1 c0.7,0,1.3,0,2,0.1c0.2,0,0.3,0,0.5,0c0.2,0,0.5,0,0.7,0.1c3.3,0.3,6.5,1.1,9.6,2.4c3.5,1.5,6.7,3.5,9.5,6.1 c0.1,0.1,0.1,0.1,0.2,0.2c0.3,0.2,0.5,0.5,0.8,0.7c0.2,0.2,0.5,0.5,0.7,0.7c0.1,0.1,0.1,0.1,0.2,0.2c2.6,2.8,4.6,6,6.1,9.5 c1.3,3.1,2.1,6.3,2.4,9.6c0,0.4,0.1,0.8,0.1,1.1c0,0.7,0.1,1.3,0.1,2C98.1,55.2,98.1,55.8,98.1,56.5"/>
            <path class="st1" d="M91.3,51.3c0-0.4-0.1-0.8-0.2-1.2c-0.7-4.4-2.6-8.5-5.3-11.9c-0.1-0.1-0.1-0.2-0.2-0.2 c-1.2-1.4-2.5-2.7-3.9-3.9c-0.1-0.1-0.1-0.1-0.2-0.2c-3.4-2.7-7.4-4.5-11.9-5.3c-0.4-0.1-0.8-0.1-1.2-0.2c-1-0.1-2.1-0.2-3.2-0.2 c-1.1,0-2.1,0.1-3.2,0.2c-0.4,0-0.8,0.1-1.2,0.2c-4.4,0.7-8.4,2.6-11.8,5.2C49.1,34,49,34,49,34.1c-1.4,1.2-2.8,2.5-3.9,3.9 c-0.1,0.1-0.1,0.1-0.2,0.2c-2.7,3.4-4.6,7.5-5.3,11.9c-0.1,0.4-0.1,0.8-0.2,1.2c-0.1,1-0.2,2.1-0.2,3.2c0,1.1,0.1,2.1,0.2,3.2 c0,0.4,0.1,0.8,0.2,1.2c0.7,4.4,2.6,8.5,5.3,11.9c0.1,0.1,0.1,0.1,0.2,0.2c1.2,1.4,2.5,2.7,3.9,3.9c0.1,0.1,0.1,0.1,0.2,0.2 c3.4,2.7,7.4,4.5,11.9,5.3c0.4,0.1,0.8,0.1,1.2,0.2c1,0.1,2.1,0.2,3.2,0.2c1.1,0,2.1-0.1,3.2-0.2c0.4,0,0.8-0.1,1.2-0.2 c4.5-0.7,8.6-2.6,12-5.3l0.2-0.2c1.4-1.2,2.7-2.5,3.9-3.9c0.1-0.1,0.1-0.1,0.2-0.2c2.6-3.4,4.5-7.4,5.2-11.8 c0.1-0.4,0.1-0.8,0.2-1.2c0.1-1,0.2-2.1,0.2-3.2C91.5,53.4,91.4,52.4,91.3,51.3 M90.7,50.1l-2.4-0.4l0,0.1c-0.7-3.3-2-6.3-3.9-8.9 l1.3-2.1C88.3,42,90,45.9,90.7,50.1 M83.5,36.3c0.7,0.7,1.3,1.3,1.8,2.1l-1.3,2.1c-1.4-1.8-3-3.4-4.8-4.8l2.1-1.3 C82.2,35,82.9,35.6,83.5,36.3 M81.1,34.1L79,35.4c-2.6-1.8-5.6-3.2-8.8-3.9l-0.4-2.4C73.9,29.9,77.8,31.6,81.1,34.1 M61.7,31.3 l0.4-2.4c1.1-0.1,2.2-0.2,3.3-0.2V31C64.1,31,62.8,31.1,61.7,31.3L61.7,31.3 M60.9,29.1l-0.4,2.4c-3.2,0.7-6.2,2-8.7,3.8l-2.1-1.3 C52.9,31.5,56.8,29.8,60.9,29.1 M47.1,36.3c0.7-0.7,1.4-1.3,2.1-1.9l2.1,1.3c-1.8,1.4-3.4,3-4.8,4.8l-1.3-2.1 C45.9,37.6,46.5,36.9,47.1,36.3 M41.8,44c0.8-1.9,1.9-3.7,3.2-5.4l1.3,2.1c-1.9,2.6-3.3,5.7-4,9l0-0.1L40,50.1 C40.3,48,40.9,45.9,41.8,44 M39.6,54.5h2.3c0,1.3,0.1,2.5,0.3,3.7l0-0.1l-2.4-0.4C39.7,56.7,39.6,55.6,39.6,54.5 M40,58.9l2.4,0.4 c0.7,3.2,2,6.2,3.9,8.8L45,70.3C42.4,67,40.7,63.1,40,58.9 M47.1,72.7c-0.7-0.7-1.3-1.3-1.8-2.1l1.3-2.1c1.4,1.8,3,3.4,4.8,4.8 l-2.1,1.3C48.5,74,47.8,73.4,47.1,72.7 M60.9,79.9c-2.1-0.4-4.1-1-6-1.8c-1.9-0.8-3.7-1.9-5.3-3.2l2.1-1.3c2.8,2,6.1,3.4,9.6,4 l0.4,2.4C61.4,79.9,61.2,79.9,60.9,79.9 M68.6,80c-1.1,0.1-2.2,0.2-3.3,0.2V78c1.3,0,3.7-0.3,3.7-0.3L68.6,80z M65.3,77.1 c-6,0-11.7-2.4-16-6.6c-4.3-4.3-6.6-10-6.6-16c0-6,2.4-11.7,6.6-16c4.3-4.3,10-6.6,16-6.6c6,0,11.7,2.4,16,6.6 c4.3,4.3,6.6,10,6.6,16c0,6-2.4,11.7-6.6,16C77.1,74.8,71.4,77.1,65.3,77.1 M69.8,79.9l0.4-2.3l0-0.1l0,0c3.3-0.7,6.3-2.1,8.9-3.9 l2.1,1.3C77.8,77.4,73.9,79.1,69.8,79.9 M83.5,72.7c-0.6,0.6-1.3,1.2-2,1.8l-2.1-1.3c1.8-1.4,3.4-3,4.8-4.8l1.3,2.1 C84.9,71.3,84.2,72,83.5,72.7 M85.7,70.2l-1.3-2.1c1.8-2.6,3.1-5.5,3.8-8.7l2.4-0.4C90,63,88.3,66.9,85.7,70.2 M88.8,54.5 c0-1.3-0.1-2.5-0.3-3.7l2.4,0.4c0.1,1.1,0.2,2.2,0.2,3.3H88.8z"/>
            <polygon class="st1" points="51.2,43.7 51.2,39.1 51.9,39.1 51.9,43 53.5,43 53.5,43.7 "/>
            <polygon class="st1" points="51.2,43.7 51.2,43.7 51.2,39.1 51.9,39.1 51.9,43 53.5,43 53.5,43.7 51.2,43.7 51.2,43.7 51.2,43.7 51.2,43.7 51.2,43.7 53.5,43.7 53.5,43 51.9,43 51.9,39.1 51.2,39.1 51.2,43.7 51.2,43.7 "/>
            <path class="st1" d="M56.6,43.7H56v-0.4c-0.1,0.2-0.2,0.3-0.4,0.4c-0.2,0.1-0.3,0.1-0.5,0.1c-0.4,0-0.7-0.1-0.9-0.4 c-0.2-0.3-0.3-0.7-0.3-1.2c0-0.5,0.1-0.9,0.3-1.1c0.2-0.3,0.5-0.4,0.9-0.4c0.2,0,0.4,0.1,0.6,0.2c0.2,0.1,0.3,0.2,0.4,0.4v-0.5 h0.6V43.7z M56,42.2c0-0.3-0.1-0.5-0.2-0.7c-0.1-0.2-0.3-0.3-0.6-0.3c-0.2,0-0.4,0.1-0.6,0.3c-0.1,0.2-0.2,0.4-0.2,0.7 c0,0.3,0.1,0.6,0.2,0.7c0.1,0.2,0.3,0.3,0.6,0.3c0.2,0,0.4-0.1,0.6-0.3C55.9,42.7,56,42.5,56,42.2"/>
            <path class="st1" d="M56.6,43.7L56.6,43.7l-0.6,0v-0.4l0,0.1c-0.1,0.2-0.2,0.3-0.4,0.4c-0.1,0.1-0.3,0.1-0.5,0.1 c-0.4,0-0.7-0.1-0.9-0.4c-0.2-0.3-0.3-0.7-0.3-1.2c0-0.5,0.1-0.9,0.3-1.1c0.2-0.3,0.5-0.4,0.9-0.4c0.2,0,0.4,0.1,0.6,0.2 c0.2,0.1,0.3,0.2,0.3,0.4l0,0.1v-0.6h0.6L56.6,43.7L56.6,43.7L56.6,43.7L56.6,43.7L56.6,43.7l0-3H56v0.5h0l0,0 c-0.1-0.2-0.2-0.3-0.4-0.4c-0.2-0.1-0.4-0.2-0.6-0.2c-0.4,0-0.7,0.2-0.9,0.4c-0.2,0.3-0.4,0.7-0.4,1.2c0,0.5,0.1,0.9,0.3,1.2 c0.2,0.3,0.5,0.4,0.9,0.4c0.2,0,0.4,0,0.5-0.1c0.2-0.1,0.3-0.2,0.4-0.4l0,0h0v0.4L56.6,43.7L56.6,43.7L56.6,43.7z M56,42.2 L56,42.2c0-0.3,0-0.6-0.2-0.7c-0.1-0.2-0.3-0.3-0.6-0.3c-0.2,0-0.4,0.1-0.6,0.3c-0.1,0.2-0.2,0.4-0.2,0.7c0,0.3,0.1,0.6,0.2,0.7 c0.1,0.2,0.3,0.3,0.6,0.3c0.2,0,0.4-0.1,0.6-0.3C56,42.7,56,42.5,56,42.2L56,42.2L56,42.2c0,0.3-0.1,0.5-0.2,0.7 c-0.1,0.2-0.3,0.3-0.5,0.3c-0.2,0-0.4-0.1-0.6-0.3c-0.1-0.2-0.2-0.4-0.2-0.7c0-0.3,0.1-0.6,0.2-0.7c0.1-0.2,0.3-0.3,0.6-0.3 s0.4,0.1,0.6,0.3C55.9,41.6,56,41.9,56,42.2L56,42.2z"/>
            <path class="st1" d="M58.2,38.8v2.4c0.1-0.2,0.2-0.3,0.4-0.4c0.2-0.1,0.4-0.2,0.6-0.2c0.4,0,0.7,0.1,0.9,0.4 c0.2,0.3,0.3,0.7,0.3,1.1c0,0.5-0.1,0.9-0.3,1.2c-0.2,0.3-0.5,0.4-0.9,0.4c-0.2,0-0.4,0-0.5-0.1c-0.2-0.1-0.3-0.2-0.4-0.4v0.4 h-0.6v-4.9H58.2z M58.1,42.2c0,0.3,0.1,0.5,0.2,0.7c0.1,0.2,0.3,0.3,0.6,0.3c0.2,0,0.4-0.1,0.6-0.3c0.1-0.2,0.2-0.4,0.2-0.7 c0-0.3-0.1-0.6-0.2-0.7c-0.1-0.2-0.3-0.3-0.6-0.3c-0.2,0-0.4,0.1-0.6,0.3C58.2,41.6,58.1,41.9,58.1,42.2"/>
            <path class="st1" d="M58.2,38.8L58.2,38.8l0,2.5l0-0.1c0.1-0.2,0.2-0.3,0.3-0.4c0.2-0.1,0.4-0.2,0.6-0.2c0.4,0,0.7,0.1,0.9,0.4 c0.2,0.3,0.3,0.7,0.3,1.1c0,0.5-0.1,0.9-0.3,1.2c-0.2,0.3-0.5,0.4-0.9,0.4c-0.2,0-0.4,0-0.5-0.1c-0.1-0.1-0.3-0.2-0.4-0.4l0-0.1 v0.4h-0.6v-4.8L58.2,38.8L58.2,38.8L58.2,38.8L58.2,38.8L58.2,38.8l-0.7,0v4.9h0.7v-0.4h0l0,0c0.1,0.2,0.3,0.3,0.4,0.4 c0.2,0.1,0.3,0.1,0.5,0.1c0.4,0,0.7-0.1,0.9-0.4c0.2-0.3,0.3-0.7,0.3-1.2c0-0.5-0.1-0.9-0.4-1.2c-0.2-0.3-0.5-0.4-0.9-0.4 c-0.2,0-0.4,0.1-0.6,0.2c-0.2,0.1-0.3,0.3-0.4,0.4l0,0h0L58.2,38.8L58.2,38.8L58.2,38.8z M58.1,42.2L58.1,42.2 c0,0.3,0.1,0.6,0.2,0.7c0.1,0.2,0.3,0.3,0.6,0.3c0.2,0,0.4-0.1,0.6-0.3c0.1-0.2,0.2-0.4,0.2-0.7c0-0.3-0.1-0.6-0.2-0.7 c-0.1-0.2-0.3-0.3-0.6-0.3c-0.2,0-0.4,0.1-0.6,0.3C58.2,41.6,58.1,41.9,58.1,42.2L58.1,42.2L58.1,42.2c0-0.3,0.1-0.5,0.2-0.7 c0.1-0.2,0.3-0.3,0.6-0.3c0.2,0,0.4,0.1,0.6,0.3c0.1,0.2,0.2,0.4,0.2,0.7c0,0.3-0.1,0.6-0.2,0.7c-0.1,0.2-0.3,0.2-0.5,0.2 c-0.2,0-0.4-0.1-0.6-0.3C58.2,42.7,58.2,42.5,58.1,42.2L58.1,42.2z"/>
            <path class="st1" d="M60.8,42.2c0-0.2,0-0.4,0.1-0.6c0.1-0.2,0.2-0.4,0.3-0.5c0.1-0.1,0.3-0.3,0.5-0.3c0.2-0.1,0.4-0.1,0.6-0.1 c0.2,0,0.4,0,0.6,0.1c0.2,0.1,0.4,0.2,0.5,0.4c0.1,0.2,0.3,0.3,0.3,0.5c0.1,0.2,0.1,0.4,0.1,0.6c0,0.2,0,0.4-0.1,0.6 c-0.1,0.2-0.2,0.4-0.3,0.5c-0.2,0.2-0.3,0.3-0.5,0.4c-0.2,0.1-0.4,0.1-0.6,0.1c-0.2,0-0.4,0-0.6-0.1c-0.2-0.1-0.4-0.2-0.5-0.3 c-0.1-0.2-0.3-0.3-0.3-0.5C60.9,42.6,60.8,42.4,60.8,42.2 M63.2,42.2c0-0.3-0.1-0.5-0.3-0.7c-0.2-0.2-0.4-0.3-0.6-0.3 c-0.2,0-0.4,0.1-0.6,0.3c-0.2,0.2-0.3,0.4-0.3,0.7c0,0.3,0.1,0.5,0.3,0.7c0.2,0.2,0.4,0.3,0.6,0.3c0.2,0,0.4-0.1,0.6-0.3 C63.1,42.7,63.2,42.5,63.2,42.2"/>
            <path class="st1" d="M60.8,42.2L60.8,42.2c0-0.2,0.1-0.4,0.1-0.6c0.1-0.2,0.2-0.4,0.3-0.5c0.1-0.1,0.3-0.3,0.5-0.3 c0.2-0.1,0.4-0.1,0.6-0.1c0.2,0,0.4,0,0.6,0.1c0.2,0.1,0.3,0.2,0.5,0.3c0.1,0.2,0.3,0.3,0.3,0.5c0.1,0.2,0.1,0.4,0.1,0.6 c0,0.2,0,0.4-0.1,0.6c-0.1,0.2-0.2,0.4-0.3,0.5c-0.2,0.2-0.3,0.3-0.5,0.3c-0.2,0.1-0.4,0.1-0.6,0.1c-0.2,0-0.4,0-0.6-0.1 c-0.2-0.1-0.3-0.2-0.5-0.3C61.1,43.2,61,43,61,42.8C60.9,42.6,60.8,42.4,60.8,42.2L60.8,42.2L60.8,42.2c0,0.2,0,0.4,0.1,0.6 c0.1,0.2,0.2,0.4,0.3,0.5c0.1,0.2,0.3,0.3,0.5,0.4c0.2,0.1,0.4,0.1,0.6,0.1c0.2,0,0.4,0,0.6-0.1c0.2-0.1,0.4-0.2,0.5-0.4 c0.1-0.2,0.3-0.3,0.3-0.5c0.1-0.2,0.1-0.4,0.1-0.6c0-0.2,0-0.4-0.1-0.6c-0.1-0.2-0.2-0.4-0.3-0.5c-0.1-0.2-0.3-0.3-0.5-0.4 c-0.2-0.1-0.4-0.1-0.6-0.1c-0.2,0-0.4,0-0.6,0.1c-0.2,0.1-0.4,0.2-0.5,0.3c-0.1,0.2-0.3,0.3-0.3,0.5C60.8,41.8,60.8,42,60.8,42.2 L60.8,42.2z M63.2,42.2L63.2,42.2c0-0.3-0.1-0.5-0.2-0.7c-0.2-0.2-0.4-0.3-0.6-0.3c-0.2,0-0.5,0.1-0.6,0.3 c-0.2,0.2-0.3,0.4-0.3,0.7c0,0.3,0.1,0.5,0.3,0.7c0.2,0.2,0.4,0.3,0.6,0.3c0.2,0,0.5-0.1,0.6-0.3C63.2,42.7,63.2,42.5,63.2,42.2 L63.2,42.2L63.2,42.2c0,0.3-0.1,0.5-0.3,0.7c-0.2,0.2-0.4,0.3-0.6,0.3c-0.2,0-0.4-0.1-0.6-0.3c-0.2-0.2-0.2-0.4-0.2-0.7 c0-0.3,0.1-0.5,0.2-0.7c0.2-0.2,0.4-0.3,0.6-0.3c0.2,0,0.4,0.1,0.6,0.3C63.1,41.7,63.2,41.9,63.2,42.2L63.2,42.2z"/>
            <path class="st1" d="M65.2,41.2c0.1-0.2,0.2-0.3,0.3-0.4c0.1-0.1,0.3-0.1,0.4-0.1c0.1,0,0.2,0,0.3,0c0.1,0,0.2,0.1,0.3,0.1 l-0.2,0.6c-0.1,0-0.1-0.1-0.2-0.1c-0.1,0-0.1,0-0.2,0c-0.2,0-0.4,0.1-0.5,0.3c-0.1,0.2-0.1,0.5-0.1,0.9v1.3h-0.6v-3h0.6V41.2z"/>
            <path class="st1" d="M65.2,41.2L65.2,41.2c0.1-0.2,0.2-0.3,0.3-0.4c0.1-0.1,0.2-0.1,0.4-0.1c0.1,0,0.2,0,0.3,0 c0.1,0,0.2,0.1,0.3,0.1l0,0l0,0l-0.2,0.6l0,0l0,0c-0.1,0-0.1-0.1-0.2-0.1c-0.1,0-0.1,0-0.2,0c-0.2,0-0.4,0.1-0.5,0.3 c-0.1,0.2-0.1,0.5-0.1,0.9v1.3h-0.6v-2.9h0.6v0.6L65.2,41.2L65.2,41.2L65.2,41.2l0-0.5h-0.7v3h0.7v-1.3c0-0.4,0-0.7,0.1-0.9 c0.1-0.2,0.2-0.3,0.4-0.3c0.1,0,0.1,0,0.2,0c0.1,0,0.1,0,0.2,0.1l0,0l0.2-0.6l0,0c-0.1,0-0.2-0.1-0.3-0.1c-0.1,0-0.2,0-0.3,0 c-0.2,0-0.3,0-0.4,0.1C65.4,40.8,65.3,41,65.2,41.2L65.2,41.2L65.2,41.2L65.2,41.2z"/>
            <path class="st1" d="M69.5,42.3h-2.2c0,0.3,0.1,0.5,0.2,0.7c0.1,0.2,0.3,0.2,0.6,0.2c0.2,0,0.4,0,0.5-0.1c0.1-0.1,0.3-0.2,0.4-0.4 l0.5,0.3c-0.2,0.3-0.4,0.5-0.6,0.7c-0.2,0.1-0.5,0.2-0.8,0.2c-0.4,0-0.8-0.1-1.1-0.4c-0.3-0.3-0.4-0.7-0.4-1.2 c0-0.5,0.1-0.9,0.4-1.1c0.3-0.3,0.6-0.4,1.1-0.4c0.4,0,0.8,0.1,1.1,0.4c0.3,0.3,0.4,0.7,0.4,1.2V42.3z M68.8,41.8 c0-0.2-0.1-0.4-0.2-0.5c-0.1-0.1-0.3-0.2-0.5-0.2c-0.2,0-0.4,0.1-0.5,0.2c-0.1,0.1-0.2,0.3-0.3,0.5H68.8z"/>
            <path class="st1" d="M69.5,42.3L69.5,42.3l-2.3,0l0,0c0,0.3,0.1,0.5,0.2,0.7c0.1,0.2,0.3,0.2,0.6,0.2c0.2,0,0.4,0,0.5-0.1 c0.1-0.1,0.3-0.2,0.4-0.5l0,0l0,0l0.5,0.3l0,0l0,0c-0.2,0.3-0.3,0.5-0.6,0.7c-0.2,0.1-0.5,0.2-0.8,0.2c-0.4,0-0.8-0.1-1.1-0.4 c-0.3-0.3-0.4-0.7-0.4-1.1c0-0.5,0.1-0.8,0.4-1.1c0.3-0.3,0.6-0.4,1-0.4c0.4,0,0.8,0.1,1,0.4c0.2,0.3,0.4,0.6,0.4,1.1L69.5,42.3 L69.5,42.3L69.5,42.3L69.5,42.3L69.5,42.3l0-0.1c0-0.5-0.1-0.9-0.4-1.2c-0.3-0.3-0.6-0.4-1.1-0.4c-0.4,0-0.8,0.2-1.1,0.5 c-0.3,0.3-0.4,0.7-0.4,1.2c0,0.5,0.1,0.9,0.4,1.2c0.3,0.3,0.6,0.4,1.1,0.4c0.3,0,0.6-0.1,0.8-0.2c0.2-0.1,0.4-0.4,0.6-0.7l0,0 l-0.6-0.3l0,0c-0.1,0.2-0.2,0.3-0.4,0.4c-0.1,0.1-0.3,0.1-0.5,0.1c-0.2,0-0.4-0.1-0.5-0.2c-0.1-0.2-0.2-0.4-0.2-0.6h0v0L69.5,42.3 L69.5,42.3L69.5,42.3z M68.8,41.8L68.8,41.8c0-0.2-0.1-0.4-0.2-0.5c-0.1-0.1-0.3-0.2-0.5-0.2c-0.2,0-0.4,0.1-0.5,0.2 c-0.1,0.1-0.2,0.3-0.3,0.5l0,0L68.8,41.8L68.8,41.8L68.8,41.8L68.8,41.8l-1.5,0v0l0,0c0.1-0.2,0.1-0.4,0.3-0.5 c0.1-0.1,0.3-0.2,0.5-0.2c0.2,0,0.4,0.1,0.5,0.2C68.7,41.5,68.8,41.6,68.8,41.8L68.8,41.8L68.8,41.8L68.8,41.8z"/>
            <path class="st1" d="M70.8,43.7h-0.6v-3h0.6v0.5c0.1-0.2,0.3-0.4,0.4-0.5c0.2-0.1,0.4-0.1,0.6-0.1c0.2,0,0.4,0,0.5,0.1 c0.1,0.1,0.3,0.2,0.3,0.4c0.1-0.2,0.3-0.4,0.5-0.4c0.2-0.1,0.4-0.1,0.6-0.1c0.2,0,0.3,0,0.5,0.1c0.1,0.1,0.2,0.2,0.3,0.3 c0,0.1,0.1,0.1,0.1,0.2c0,0.1,0,0.2,0,0.4v0.2v1.8h-0.6v-1.5c0-0.4,0-0.7-0.1-0.8c-0.1-0.1-0.2-0.2-0.4-0.2 c-0.3,0-0.4,0.1-0.5,0.3c-0.1,0.2-0.2,0.5-0.2,0.9v1.4h-0.6v-1.5c0-0.4,0-0.6-0.1-0.8c-0.1-0.1-0.2-0.2-0.4-0.2 c-0.1,0-0.2,0-0.3,0.1c-0.1,0.1-0.2,0.1-0.2,0.3c0,0.1-0.1,0.2-0.1,0.3c0,0.1,0,0.3,0,0.6V43.7z"/>
            <path class="st1" d="M70.8,43.7L70.8,43.7l-0.6,0v-2.9h0.6v0.5l0-0.1c0.1-0.2,0.3-0.4,0.4-0.4c0.2-0.1,0.3-0.1,0.6-0.1 c0.2,0,0.4,0,0.5,0.1c0.1,0.1,0.2,0.2,0.3,0.4l0,0l0,0c0.1-0.2,0.3-0.4,0.5-0.4c0.2-0.1,0.3-0.1,0.6-0.1c0.2,0,0.3,0,0.5,0.1 c0.1,0.1,0.2,0.2,0.3,0.3c0,0.1,0.1,0.1,0.1,0.2c0,0.1,0,0.2,0,0.4v0.2v1.8H74v-1.5c0-0.4,0-0.7-0.1-0.8c-0.1-0.1-0.2-0.2-0.4-0.2 c-0.3,0-0.4,0.1-0.6,0.3c-0.1,0.2-0.2,0.5-0.2,0.9v1.3h-0.6v-1.5c0-0.4,0-0.6-0.1-0.8c-0.1-0.1-0.2-0.2-0.4-0.2 c-0.1,0-0.2,0-0.4,0.1c-0.1,0.1-0.2,0.1-0.3,0.3c0,0.1-0.1,0.2-0.1,0.3c0,0.1,0,0.3,0,0.6L70.8,43.7L70.8,43.7L70.8,43.7 L70.8,43.7L70.8,43.7l0-1.4c0-0.3,0-0.5,0-0.6c0-0.1,0-0.2,0.1-0.2c0.1-0.1,0.1-0.2,0.2-0.2c0.1-0.1,0.2-0.1,0.3-0.1 c0.2,0,0.3,0.1,0.4,0.2c0.1,0.1,0.1,0.4,0.1,0.8v1.5h0.7v-1.4c0-0.4,0.1-0.7,0.2-0.9c0.1-0.2,0.3-0.2,0.5-0.2 c0.2,0,0.3,0.1,0.4,0.2c0.1,0.1,0.1,0.4,0.1,0.8v1.5h0.7v-1.8v-0.2c0-0.2,0-0.3,0-0.4c0-0.1,0-0.2-0.1-0.2 c-0.1-0.1-0.2-0.2-0.3-0.3c-0.1-0.1-0.3-0.1-0.5-0.1c-0.2,0-0.4,0-0.6,0.1c-0.2,0.1-0.3,0.2-0.5,0.5l0,0l0,0 c-0.1-0.2-0.2-0.4-0.3-0.5c-0.1-0.1-0.3-0.1-0.6-0.1c-0.2,0-0.4,0-0.6,0.1c-0.2,0.1-0.3,0.3-0.4,0.5l0,0h0v-0.5h-0.6v3L70.8,43.7 L70.8,43.7L70.8,43.7z"/>
            <path class="st1" d="M76.1,40.7v1.7c0,0.3,0.1,0.5,0.2,0.6c0.1,0.1,0.3,0.2,0.5,0.2c0.3,0,0.4-0.1,0.5-0.2 c0.1-0.1,0.2-0.3,0.2-0.6v-1.7h0.6v1.5c0,0.6-0.1,1-0.3,1.2c-0.2,0.3-0.6,0.4-1,0.4c-0.5,0-0.8-0.1-1-0.4 c-0.2-0.3-0.3-0.7-0.3-1.2v-1.5H76.1z"/>
            <path class="st1" d="M76.1,40.7L76.1,40.7l0,1.7c0,0.3,0.1,0.5,0.2,0.6c0.1,0.1,0.3,0.2,0.6,0.2c0.3,0,0.4-0.1,0.6-0.2 c0.1-0.1,0.2-0.3,0.2-0.6v-1.7h0.6v1.5c0,0.6-0.1,1-0.3,1.2c-0.2,0.3-0.5,0.4-1,0.4c-0.5,0-0.8-0.1-1-0.4 c-0.2-0.2-0.3-0.7-0.3-1.2v-1.5L76.1,40.7L76.1,40.7L76.1,40.7L76.1,40.7L76.1,40.7l-0.7,0v1.5c0,0.6,0.1,1,0.3,1.3 c0.2,0.3,0.6,0.4,1.1,0.4c0.5,0,0.8-0.1,1-0.4c0.2-0.3,0.3-0.7,0.3-1.3v-1.5h-0.7v1.7c0,0.3-0.1,0.5-0.2,0.6 c-0.1,0.1-0.3,0.2-0.5,0.2c-0.2,0-0.4-0.1-0.5-0.2c-0.1-0.1-0.2-0.3-0.2-0.6L76.1,40.7L76.1,40.7L76.1,40.7z"/>
            <path class="st1" d="M78.7,43.1l0.5-0.3c0,0.1,0.1,0.3,0.2,0.3c0.1,0.1,0.2,0.1,0.4,0.1c0.1,0,0.3,0,0.3-0.1 c0.1-0.1,0.1-0.2,0.1-0.3c0-0.2-0.1-0.3-0.4-0.4c-0.1,0-0.2-0.1-0.2-0.1c-0.3-0.1-0.5-0.3-0.6-0.4c-0.1-0.1-0.2-0.3-0.2-0.5 c0-0.3,0.1-0.5,0.3-0.6c0.2-0.2,0.5-0.2,0.8-0.2c0.2,0,0.4,0,0.6,0.1c0.2,0.1,0.3,0.2,0.3,0.4l-0.5,0.3c0-0.1-0.1-0.2-0.2-0.2 c-0.1-0.1-0.2-0.1-0.3-0.1c-0.1,0-0.2,0-0.3,0.1c-0.1,0.1-0.1,0.1-0.1,0.2c0,0.2,0.2,0.3,0.5,0.4c0.1,0,0.2,0.1,0.2,0.1 c0.3,0.1,0.4,0.2,0.6,0.4c0.1,0.1,0.2,0.3,0.2,0.5c0,0.3-0.1,0.5-0.3,0.7c-0.2,0.2-0.5,0.3-0.8,0.3c-0.3,0-0.5-0.1-0.7-0.2 C78.9,43.5,78.8,43.4,78.7,43.1"/>
            <path class="st1" d="M78.7,43.1L78.7,43.1l0.5-0.3l0,0l0,0c0,0.2,0.1,0.3,0.2,0.4c0.1,0.1,0.3,0.1,0.4,0.1c0.1,0,0.3,0,0.4-0.1 c0.1-0.1,0.1-0.2,0.1-0.3c0-0.1,0-0.2-0.1-0.2c-0.1-0.1-0.2-0.1-0.3-0.2c-0.1,0-0.2-0.1-0.2-0.1c-0.3-0.1-0.5-0.3-0.6-0.4 c-0.1-0.1-0.2-0.3-0.2-0.5c0-0.3,0.1-0.5,0.3-0.6c0.2-0.2,0.4-0.2,0.8-0.2c0.2,0,0.4,0,0.5,0.1c0.2,0.1,0.3,0.2,0.3,0.4l0,0l0,0 l-0.5,0.3l0,0l0,0c0-0.1-0.1-0.2-0.2-0.2c-0.1-0.1-0.2-0.1-0.3-0.1c-0.1,0-0.2,0-0.3,0.1c-0.1,0.1-0.1,0.2-0.1,0.3 c0,0.1,0,0.2,0.1,0.2c0.1,0.1,0.2,0.1,0.4,0.2c0.1,0,0.2,0.1,0.2,0.1v0c0.3,0.1,0.4,0.2,0.5,0.4c0.1,0.1,0.2,0.3,0.2,0.5 c0,0.3-0.1,0.5-0.3,0.7c-0.2,0.2-0.5,0.2-0.8,0.2c-0.3,0-0.5-0.1-0.7-0.2C78.9,43.5,78.8,43.4,78.7,43.1L78.7,43.1L78.7,43.1 L78.7,43.1L78.7,43.1c0.1,0.2,0.2,0.4,0.4,0.5c0.2,0.1,0.4,0.2,0.7,0.2c0.4,0,0.6-0.1,0.8-0.3c0.2-0.2,0.3-0.4,0.3-0.7 c0-0.2-0.1-0.4-0.2-0.5c-0.1-0.1-0.3-0.3-0.6-0.4l0,0l0,0c-0.1,0-0.1-0.1-0.2-0.1c-0.2-0.1-0.3-0.1-0.4-0.2 c-0.1-0.1-0.1-0.1-0.1-0.2c0-0.1,0-0.2,0.1-0.2c0.1-0.1,0.2-0.1,0.3-0.1c0.1,0,0.2,0,0.3,0.1c0.1,0.1,0.1,0.1,0.2,0.2l0,0l0.5-0.4 l0,0c-0.1-0.2-0.2-0.3-0.3-0.4c-0.2-0.1-0.3-0.1-0.6-0.1c-0.3,0-0.6,0.1-0.8,0.3c-0.2,0.2-0.3,0.4-0.3,0.7c0,0.2,0.1,0.4,0.2,0.5 c0.1,0.1,0.3,0.3,0.6,0.4l0,0l0,0c0.1,0,0.1,0.1,0.2,0.1l0,0l0,0c0.1,0.1,0.3,0.1,0.3,0.2c0.1,0.1,0.1,0.1,0.1,0.2 c0,0.1,0,0.2-0.1,0.3c-0.1,0.1-0.2,0.1-0.3,0.1c-0.2,0-0.3,0-0.4-0.1c-0.1-0.1-0.2-0.2-0.2-0.3l0,0L78.7,43.1L78.7,43.1L78.7,43.1 z"/>
            <polygon class="st1" points="60.6,72.6 60.6,69.5 59.9,69.5 60.1,69 61.2,69 61.2,72.6 "/>
            <polygon class="st1" points="60.6,72.6 60.7,72.6 60.7,69.4 59.9,69.4 60.1,69 61.1,69 61.1,72.6 60.6,72.6 60.6,72.6 60.7,72.6 60.6,72.6 60.6,72.6 61.2,72.6 61.2,69 60.1,69 59.9,69.5 60.6,69.5 60.6,72.6 60.6,72.6 "/>
            <path class="st1" d="M64.1,71.2c-0.1,0-0.2,0.1-0.2,0.1c-0.1,0-0.2,0-0.2,0c-0.3,0-0.6-0.1-0.8-0.3c-0.2-0.2-0.3-0.5-0.3-0.9 c0-0.4,0.1-0.7,0.3-0.9c0.2-0.2,0.5-0.3,0.9-0.3c0.4,0,0.6,0.1,0.9,0.3c0.2,0.2,0.3,0.5,0.3,0.9c0,0.4-0.3,1-0.8,1.7l-0.1,0.1 l-0.6,0.9l-0.4-0.2L64.1,71.2z M64.5,70.1c0-0.2-0.1-0.4-0.2-0.5c-0.1-0.1-0.3-0.2-0.5-0.2c-0.2,0-0.4,0.1-0.5,0.2 c-0.1,0.1-0.2,0.3-0.2,0.5c0,0.2,0.1,0.4,0.2,0.5c0.1,0.1,0.3,0.2,0.5,0.2c0.2,0,0.3-0.1,0.5-0.2C64.4,70.5,64.5,70.3,64.5,70.1"/>
            <path class="st1" d="M64.1,71.2L64.1,71.2c-0.1,0-0.2,0-0.2,0.1c-0.1,0-0.2,0-0.2,0c-0.3,0-0.6-0.1-0.8-0.3 c-0.2-0.2-0.3-0.5-0.3-0.8c0-0.4,0.1-0.7,0.3-0.9c0.2-0.2,0.5-0.3,0.9-0.3c0.3,0,0.6,0.1,0.8,0.3c0.2,0.2,0.3,0.5,0.3,0.9 c0,0.4-0.3,1-0.8,1.7v0l-0.1,0.1l0,0l0,0l-0.6,0.9l-0.4-0.2L64.1,71.2L64.1,71.2L64.1,71.2L64.1,71.2l-1.1,1.4l0.5,0.2l0.6-0.9 l0.1-0.1l0,0l0,0c0.5-0.8,0.8-1.3,0.8-1.7c0-0.4-0.1-0.7-0.3-0.9c-0.2-0.2-0.5-0.3-0.9-0.3c-0.4,0-0.7,0.1-0.9,0.4 c-0.2,0.2-0.4,0.5-0.4,0.9c0,0.4,0.1,0.6,0.3,0.9c0.2,0.2,0.5,0.3,0.8,0.3c0.1,0,0.2,0,0.2,0C64,71.3,64.1,71.3,64.1,71.2 L64.1,71.2L64.1,71.2L64.1,71.2z M64.5,70.1L64.5,70.1c0-0.2,0-0.4-0.2-0.5c-0.1-0.1-0.3-0.2-0.5-0.2c-0.2,0-0.4,0.1-0.5,0.2 c-0.1,0.1-0.2,0.3-0.2,0.5c0,0.2,0.1,0.4,0.2,0.6c0.1,0.1,0.3,0.2,0.5,0.2c0.2,0,0.4-0.1,0.5-0.2C64.4,70.5,64.5,70.3,64.5,70.1 L64.5,70.1L64.5,70.1c0,0.2-0.1,0.4-0.2,0.5c-0.1,0.1-0.3,0.2-0.5,0.2c-0.2,0-0.4-0.1-0.5-0.2c-0.1-0.1-0.2-0.3-0.2-0.5 c0-0.2,0.1-0.4,0.2-0.5c0.1-0.1,0.3-0.2,0.5-0.2c0.2,0,0.3,0.1,0.4,0.2C64.4,69.7,64.4,69.9,64.5,70.1L64.5,70.1z"/>
            <path class="st1" d="M67.8,72.1v0.5h-2.4l1.3-1.6c0.2-0.2,0.3-0.4,0.4-0.5c0.1-0.2,0.1-0.3,0.1-0.4c0-0.2-0.1-0.3-0.2-0.4 c-0.1-0.1-0.2-0.2-0.4-0.2c-0.2,0-0.3,0.1-0.4,0.2c-0.1,0.1-0.2,0.2-0.2,0.4h-0.6c0-0.3,0.1-0.6,0.3-0.8c0.2-0.2,0.5-0.3,0.9-0.3 c0.3,0,0.6,0.1,0.8,0.3c0.2,0.2,0.3,0.4,0.3,0.7c0,0.2-0.1,0.5-0.2,0.7c-0.1,0.2-0.4,0.6-0.7,1l-0.5,0.5H67.8z"/>
            <path class="st1" d="M67.8,72.1L67.8,72.1l0,0.5h-2.3l1.3-1.6c0.2-0.2,0.3-0.4,0.4-0.5c0.1-0.2,0.1-0.3,0.1-0.4 c0-0.2-0.1-0.3-0.2-0.4c-0.1-0.1-0.3-0.2-0.4-0.2c-0.2,0-0.3,0.1-0.4,0.2c-0.1,0.1-0.2,0.2-0.2,0.4l0,0v0h-0.6v0h0 c0-0.3,0.1-0.6,0.3-0.8c0.2-0.2,0.5-0.3,0.8-0.3c0.3,0,0.6,0.1,0.8,0.3c0.2,0.2,0.3,0.4,0.3,0.7c0,0.2-0.1,0.4-0.2,0.7 c-0.1,0.2-0.4,0.6-0.7,1l-0.5,0.6L67.8,72.1L67.8,72.1L67.8,72.1L67.8,72.1L67.8,72.1l-1.3,0l0.4-0.5c0.4-0.4,0.6-0.8,0.7-1 c0.1-0.2,0.2-0.5,0.2-0.7c0-0.3-0.1-0.6-0.3-0.8c-0.2-0.2-0.5-0.3-0.8-0.3c-0.4,0-0.7,0.1-0.9,0.3c-0.2,0.2-0.3,0.5-0.3,0.8v0h0.6 l0,0c0-0.2,0.1-0.3,0.2-0.4c0.1-0.1,0.2-0.2,0.4-0.2c0.2,0,0.3,0.1,0.4,0.1c0.1,0.1,0.2,0.2,0.2,0.4c0,0.1,0,0.3-0.1,0.4 c-0.1,0.2-0.2,0.3-0.4,0.5l-1.4,1.7h2.4L67.8,72.1L67.8,72.1L67.8,72.1z"/>
            <polygon class="st1" points="69.7,72.6 69.7,69.5 68.9,69.5 69.1,69 70.2,69 70.2,72.6 "/>
            <polygon class="st1" points="69.7,72.6 69.7,72.6 69.7,69.4 68.9,69.4 69.2,69 70.2,69 70.2,72.6 69.7,72.6 69.7,72.6 69.7,72.6 69.7,72.6 69.7,72.6 70.2,72.6 70.2,69 69.1,69 68.9,69.5 69.6,69.5 69.6,72.6 69.7,72.6 "/>
            <path class="st1" d="M78.8,58.7c0.4,0.4,0.8,0.7,1.2,1c0.1,0.1,0.2,0.2,0.3,0.3l0.1,0.1l0,0.1c0,0.1-0.1,0.2-0.1,0.2l0,0.1 l0.1,0.1c0.2,0.1,0.3,0.2,0.5,0.2c0.5,0.2,1,0.5,1.5,0.7l0.1,0.1l0,0.1l-0.1,0l0,0l-0.1,0l-2.1-0.8l-0.1,0C80.1,61,80,61,80,61 l-0.1,0c-0.4-0.1-0.8-0.3-1.2-0.4c-0.3-0.1-0.6-0.2-0.9-0.3c-0.5-0.2-1.1-0.4-1.6-0.6c-0.5-0.2-1-0.4-1.5-0.6 c-0.5-0.2-1-0.4-1.5-0.6c-0.5-0.2-1-0.4-1.5-0.6c-0.3-0.1-0.7-0.3-1-0.4c-0.1,0-0.2-0.1-0.3-0.1l-0.1-0.1l0-0.1L70.1,57L70,57 c-0.2-0.1-0.4-0.2-0.6-0.2c-0.4-0.2-0.9-0.3-1.3-0.5l-0.1,0l0,0c-0.2,0.3-0.4,0.5-0.6,0.8l0,0l0,0l0.1,0.1 c0.3,0.2,0.6,0.5,0.9,0.7c0.1,0.1,0.2,0.2,0.3,0.3c0,0.1,0,0.2,0,0.2c-0.1,0.1-0.2,0.3-0.3,0.5C68.1,59,68,59,67.9,59 c-0.1,0-0.2,0-0.3-0.1c-0.2-0.1-0.5-0.1-0.7-0.2c-0.2-0.1-0.5-0.2-0.7-0.3l-0.1,0c-0.2,0.2-0.4,0.5-0.6,0.7l0,0 c0.5,0.4,1,0.8,1.5,1.2l0.1,0c0.1,0,0.1,0,0.2,0l0.1,0.1c0.2,0.2,0.5,0.4,0.7,0.6c0.4,0.3,0.7,0.6,1.1,0.9 c0.2,0.1,0.3,0.2,0.5,0.4c0.3,0.3,0.7,0.5,1,0.8c0.3,0.2,0.5,0.4,0.8,0.6c0.4,0.3,0.8,0.6,1.2,1c0.3,0.3,0.6,0.5,1,0.8 c0.5,0.4,0.9,0.7,1.4,1.1l0.1,0.1l0.1,0.1c0.3,0.2,0.5,0.4,0.8,0.6l0.1,0.1l0.1,0c0.1,0,0.3,0.1,0.3,0.2l0,0.1l0.1,0.1l0.1,0 c0.1,0.1,0.3,0.2,0.4,0.3l0.1,0.1l0,0.1c0,0-0.1,0-0.1,0L77,68.1c-0.2-0.1-0.3-0.2-0.5-0.3l-0.1,0l-0.2,0c-0.1,0-0.2-0.1-0.3-0.2 l-0.1-0.1c-0.2-0.1-0.3-0.2-0.5-0.3l-0.1,0c-0.1,0-0.2,0-0.2,0.1c-0.1,0.1-0.1,0.1-0.2,0.2c0,0-0.1,0-0.2,0 c-0.3-0.1-0.7-0.2-1-0.3c-0.4-0.1-0.8-0.3-1.2-0.4c-0.1,0-0.1-0.1-0.2-0.1l0,0l-0.1,0l0,0.1c0,0.1,0.1,0.1,0.1,0.2l0.1,0.2l0,0.1 c-0.1,0.1-0.2,0.1-0.3,0.2l-0.1,0l-0.1,0c-0.1,0-0.2-0.1-0.4-0.2c-0.2-0.1-0.4-0.3-0.6-0.4c-0.3-0.2-0.5-0.5-0.7-0.8 c-0.1-0.1-0.1-0.2-0.1-0.2l0-0.1c0.1-0.1,0.2-0.2,0.3-0.2l0.1,0l0.1,0l0.1,0l0,0c-2.1-1.7-4.1-3.3-6.2-4.9l-0.1,0 c-0.1,0.1-0.1,0.1-0.2,0.2c-0.1,0.1-0.1,0.1-0.2,0.2l0.1,0.1c0,0.1,0,0.1,0,0.2c-0.1,0.2-0.2,0.3-0.4,0.5 c-0.1,0.1-0.1,0.2-0.2,0.3c0,0.1-0.1,0.1-0.2,0.1l-0.1,0c-0.2-0.1-0.3-0.1-0.4-0.2c-0.1-0.1-0.2-0.2-0.3-0.3l-0.1-0.1l0-0.1 l0.1-0.1c0.1-0.1,0.1-0.2,0.2-0.2c0.1-0.2,0.3-0.3,0.4-0.5c0.1-0.1,0.1-0.1,0.2,0l0.1,0l0,0l0.1-0.1c0.1-0.1,0.1-0.1,0.2-0.3 l0-0.1l-0.1-0.1c-0.1-0.1-0.1-0.1-0.2-0.2c-0.4-0.3-0.7-0.6-1.1-0.9c-0.3-0.2-0.6-0.5-0.9-0.7c-0.5-0.4-1-0.8-1.5-1.2 c-0.4-0.3-0.7-0.6-1.1-0.9c-0.1-0.1-0.2-0.2-0.3-0.3c-0.1,0-0.2,0-0.3,0.1c-0.4,0.1-0.7,0.1-1.1,0.1c-0.2,0-0.4,0-0.6,0 c-0.7-0.1-1.2-0.3-1.7-0.7c-0.3-0.3-0.5-0.6-0.7-0.9c0-0.1-0.1-0.1-0.1-0.1c-0.1-0.1-0.2-0.1-0.2-0.3c-0.1-0.2-0.2-0.4-0.3-0.7 l0-0.1c0-0.1,0-0.2,0-0.3l0-0.1c0-0.1,0-0.2-0.1-0.3c0-0.4,0-0.8,0.1-1.3l0-0.1c-0.1,0-0.2,0-0.4,0c-0.1,0-0.1,0-0.2,0 c-0.2-0.1-0.4-0.2-0.6-0.3l-2.7-1.4c-0.4-0.2-0.7-0.4-1.1-0.5c-0.1-0.1-0.2-0.1-0.2-0.3c0-0.1,0-0.2,0-0.3 c0.1-0.2,0.2-0.4,0.4-0.6c0.1-0.1,0.2-0.2,0.3-0.2c0.1-0.1,0.2,0,0.4,0c0.3,0.2,0.6,0.3,1,0.5c0.6,0.3,1.1,0.6,1.7,0.9 c0.5,0.3,1.1,0.5,1.6,0.8l0.1,0.1c0,0.1,0.1,0.2,0.2,0.3l0,0l0,0l0.1-0.1c0.4-0.4,0.8-0.7,1.4-0.9c0.4-0.2,0.7-0.2,1.1-0.3 c0.2,0,0.5,0,0.7,0c0.3,0,0.7,0.1,1,0.2c0.3,0.1,0.6,0.2,0.9,0.4c0.1,0.1,0.2,0.2,0.3,0.3c0.2,0.2,0.4,0.5,0.6,0.7 c0.2,0.4,0.4,0.7,0.5,1.1l0,0.1l0.1,0c0.3,0.1,0.5,0.2,0.8,0.3c0.5,0.2,0.9,0.3,1.4,0.5c0.2,0.1,0.5,0.2,0.7,0.3 c0.5,0.2,0.9,0.3,1.4,0.5c0.4,0.1,0.8,0.3,1.1,0.4c0.6,0.2,1.1,0.4,1.7,0.6c0.2,0.1,0.3,0.1,0.5,0.2l0.1,0 c0.1-0.1,0.2-0.2,0.2-0.3l-0.1-0.1c0-0.1,0-0.1,0-0.2l0-0.1c0.1-0.1,0.2-0.3,0.3-0.4c0.1-0.1,0.1-0.2,0.2-0.3 c0-0.1,0.1-0.1,0.2-0.1l0.1,0c0.3,0.1,0.5,0.2,0.7,0.4l0.1,0.1c0,0.1,0,0.1,0,0.2c-0.2,0.3-0.4,0.5-0.6,0.8c0,0.1-0.1,0.1-0.2,0.1 l-0.1,0c-0.1,0.1-0.1,0.1-0.2,0.2l0.1,0c0.1,0,0.2,0.1,0.3,0.1c0.3,0.1,0.6,0.2,0.8,0.3c0.3,0.1,0.7,0.3,1,0.4 c0.5,0.2,0.9,0.3,1.4,0.5c0.4,0.2,0.8,0.3,1.2,0.5c0.4,0.2,0.9,0.3,1.3,0.5c0.5,0.2,0.9,0.3,1.4,0.5l0.1,0l0.1-0.1 c0-0.1,0.1-0.2,0.1-0.3c0-0.1,0.1-0.1,0.1-0.1c0.1,0,0.1,0,0.2,0c0.2,0,0.4,0,0.6,0.1c0.2,0,0.3,0.1,0.5,0.2 c0.2,0.1,0.5,0.2,0.7,0.4c0.1,0.1,0.2,0.1,0.2,0.2c0.1,0.1,0.1,0.2,0,0.2c0,0.1-0.1,0.1-0.1,0.2C78.9,58.5,78.9,58.5,78.8,58.7 L78.8,58.7 M57,54.4c-0.1-0.1-0.2-0.1-0.3-0.2l-0.1-0.1l0.1,0C56.9,54.2,57,54.3,57,54.4l0.1,0l0.1,0l-0.1-0.1 c-0.2-0.1-0.4-0.3-0.5-0.4c-0.1-0.1-0.1-0.1-0.1-0.2c0-0.1,0.1-0.2,0.2-0.2c0.1-0.1,0.2-0.1,0.3-0.2c0.1-0.1,0.3-0.1,0.4,0 c0.4,0.1,0.7,0.2,1.1,0.3l0.1,0l0,0c0-0.2,0.1-0.4,0.2-0.6l0-0.1l0-0.2l0-0.1c0-0.1-0.1-0.2-0.2-0.3c-0.1-0.1-0.1-0.2-0.2-0.2 c-0.1-0.1-0.1-0.2-0.2-0.3c-0.1-0.1-0.1-0.3,0-0.4c0-0.1,0.1-0.2,0.1-0.2c0-0.1,0.1-0.1,0.3-0.1l0.1,0c0.3,0.1,0.6,0.2,0.9,0.3 l0.1,0l0-0.1c-0.5-0.6-1.1-1-1.9-1.1c-0.3,0-0.6,0-1,0c-0.3,0-0.6,0.1-0.9,0.2c-0.2,0.1-0.3,0.2-0.5,0.2c-0.2,0.1-0.4,0.3-0.6,0.4 c-0.3,0.3-0.6,0.7-0.8,1.1c-0.2,0.4-0.2,0.9-0.1,1.4c0,0.1,0.1,0.2,0.2,0.3c0.2,0.2,0.4,0.3,0.7,0.4c0.5,0.2,1.1,0.3,1.6,0.3 C56.9,54.5,57,54.5,57,54.4L57,54.4L57,54.4 M67.2,55.9L67.2,55.9c-0.5-0.2-1-0.4-1.4-0.6c-0.1,0-0.2,0.1-0.3,0.1 c-0.1,0-0.1,0-0.2,0c-0.3-0.1-0.6-0.2-0.9-0.3c-0.2-0.1-0.4-0.2-0.6-0.2c-0.4-0.1-0.8-0.3-1.1-0.4c-0.3-0.1-0.7-0.3-1-0.4l-0.1,0 l0,0.1c0,0.1,0,0.2,0,0.3c0,0.2-0.1,0.3-0.2,0.4c-0.1,0.1-0.2,0.2-0.3,0.3l-0.1,0l0.1,0.1c0.3,0.3,0.7,0.5,1,0.8 c0.3,0.3,0.6,0.5,1,0.8c0.1,0.1,0.2,0.1,0.3,0.2l0.1,0.1c0.1,0.1,0.1,0.3,0.2,0.4l0,0.1l0.1,0c0.4,0.3,0.7,0.6,1.1,0.8l0.1,0.1 c0.2-0.2,0.4-0.4,0.6-0.7l0,0c-0.1-0.1-0.1-0.1-0.2-0.2c-0.3-0.2-0.5-0.4-0.7-0.6c-0.1-0.1-0.2-0.2-0.2-0.3c0-0.1,0-0.2,0-0.2 c0.1-0.2,0.2-0.3,0.3-0.5c0.1-0.1,0.1-0.1,0.2-0.1c0.1,0,0.2,0,0.3,0c0.2,0.1,0.4,0.1,0.6,0.2c0.2,0.1,0.4,0.2,0.6,0.3l0.1,0 C66.8,56.4,67,56.2,67.2,55.9 M70.5,65L70.5,65l-0.1-0.1c-0.4-0.3-0.8-0.6-1.2-0.9c-0.5-0.4-1.1-0.9-1.6-1.3 c-0.2-0.2-0.5-0.4-0.7-0.6c-0.4-0.3-0.8-0.6-1.1-0.9c-0.3-0.3-0.7-0.5-1-0.8l-0.1-0.1l-0.1,0l0,0.1l0.1,0c0.2,0.2,0.4,0.4,0.7,0.5 c0.6,0.5,1.2,0.9,1.7,1.4c0.8,0.7,1.7,1.3,2.5,2c0.3,0.2,0.6,0.5,0.9,0.7L70.5,65L70.5,65L70.5,65 M56.8,48.9 c-0.4,0-0.7,0.1-1.1,0.2c-0.5,0.2-0.9,0.4-1.3,0.8c-0.1,0.1-0.2,0.2-0.3,0.3l0,0.1l0.1,0c0.1-0.1,0.2-0.2,0.2-0.2 c0.2-0.2,0.5-0.4,0.8-0.6c0.3-0.1,0.5-0.2,0.8-0.3C56.3,49,56.5,49,56.8,48.9c0.1,0,0.2,0,0.4,0C57,48.9,56.9,48.9,56.8,48.9"/>
        </g>
</svg>
